<svg id="visual" viewBox="0 0 1920 1080" width="1920" height="1080" xmlns="http://www.w3.org/2000/svg" xmlns:xlink="http://www.w3.org/1999/xlink" version="1.1"><path d="M0 678L120 758L240 531L360 634L480 560L600 463L720 606L840 799L960 755L1080 705L1200 646L1320 664L1440 601L1560 455L1680 539L1800 593L1920 638L1920 1081L1800 1081L1680 1081L1560 1081L1440 1081L1320 1081L1200 1081L1080 1081L960 1081L840 1081L720 1081L600 1081L480 1081L360 1081L240 1081L120 1081L0 1081Z" fill="#dddddd"></path><path d="M0 642L120 709L240 768L360 616L480 717L600 661L720 666L840 797L960 778L1080 812L1200 590L1320 616L1440 867L1560 805L1680 817L1800 844L1920 772L1920 1081L1800 1081L1680 1081L1560 1081L1440 1081L1320 1081L1200 1081L1080 1081L960 1081L840 1081L720 1081L600 1081L480 1081L360 1081L240 1081L120 1081L0 1081Z" fill="#c2c3c6"></path><path d="M0 752L120 846L240 776L360 593L480 675L600 824L720 809L840 725L960 604L1080 788L1200 749L1320 731L1440 747L1560 857L1680 597L1800 637L1920 679L1920 1081L1800 1081L1680 1081L1560 1081L1440 1081L1320 1081L1200 1081L1080 1081L960 1081L840 1081L720 1081L600 1081L480 1081L360 1081L240 1081L120 1081L0 1081Z" fill="#a7aaaf"></path><path d="M0 661L120 632L240 783L360 874L480 836L600 910L720 698L840 689L960 677L1080 639L1200 681L1320 911L1440 717L1560 699L1680 868L1800 906L1920 629L1920 1081L1800 1081L1680 1081L1560 1081L1440 1081L1320 1081L1200 1081L1080 1081L960 1081L840 1081L720 1081L600 1081L480 1081L360 1081L240 1081L120 1081L0 1081Z" fill="#8d9199"></path><path d="M0 753L120 872L240 892L360 933L480 735L600 794L720 774L840 756L960 897L1080 751L1200 700L1320 725L1440 706L1560 880L1680 720L1800 686L1920 848L1920 1081L1800 1081L1680 1081L1560 1081L1440 1081L1320 1081L1200 1081L1080 1081L960 1081L840 1081L720 1081L600 1081L480 1081L360 1081L240 1081L120 1081L0 1081Z" fill="#747a84"></path><path d="M0 881L120 920L240 922L360 951L480 825L600 942L720 790L840 929L960 749L1080 786L1200 886L1320 802L1440 805L1560 955L1680 766L1800 817L1920 807L1920 1081L1800 1081L1680 1081L1560 1081L1440 1081L1320 1081L1200 1081L1080 1081L960 1081L840 1081L720 1081L600 1081L480 1081L360 1081L240 1081L120 1081L0 1081Z" fill="#5c636f"></path><path d="M0 891L120 796L240 958L360 916L480 959L600 968L720 927L840 943L960 826L1080 843L1200 978L1320 828L1440 945L1560 915L1680 886L1800 900L1920 889L1920 1081L1800 1081L1680 1081L1560 1081L1440 1081L1320 1081L1200 1081L1080 1081L960 1081L840 1081L720 1081L600 1081L480 1081L360 1081L240 1081L120 1081L0 1081Z" fill="#454d5a"></path><path d="M0 962L120 868L240 918L360 908L480 858L600 873L720 925L840 966L960 870L1080 870L1200 991L1320 895L1440 862L1560 897L1680 909L1800 896L1920 963L1920 1081L1800 1081L1680 1081L1560 1081L1440 1081L1320 1081L1200 1081L1080 1081L960 1081L840 1081L720 1081L600 1081L480 1081L360 1081L240 1081L120 1081L0 1081Z" fill="#2e3847"></path><path d="M0 995L120 999L240 1024L360 910L480 958L600 965L720 928L840 1001L960 1040L1080 953L1200 953L1320 1018L1440 1009L1560 1032L1680 939L1800 1030L1920 1037L1920 1081L1800 1081L1680 1081L1560 1081L1440 1081L1320 1081L1200 1081L1080 1081L960 1081L840 1081L720 1081L600 1081L480 1081L360 1081L240 1081L120 1081L0 1081Z" fill="#182434"></path><path d="M0 1014L120 1070L240 975L360 1012L480 973L600 993L720 992L840 1035L960 993L1080 1018L1200 970L1320 979L1440 1063L1560 1055L1680 979L1800 1050L1920 1006L1920 1081L1800 1081L1680 1081L1560 1081L1440 1081L1320 1081L1200 1081L1080 1081L960 1081L840 1081L720 1081L600 1081L480 1081L360 1081L240 1081L120 1081L0 1081Z" fill="#001122"></path></svg>